<?xml version="1.0" standalone="no"?>
<!DOCTYPE svg PUBLIC "-//W3C//DTD SVG 1.1//EN" "http://www.w3.org/Graphics/SVG/1.1/DTD/svg11.dtd" >
<svg xmlns="http://www.w3.org/2000/svg">
<metadata></metadata>
<defs>
<font id="metshigenormal" horiz-adv-x="681" >
<font-face units-per-em="2048" ascent="1638" descent="-410" />
<missing-glyph horiz-adv-x="1024" />
<glyph horiz-adv-x="2048" />
<glyph horiz-adv-x="2048" />
<glyph unicode="&#xd;" horiz-adv-x="1024" />
<glyph unicode=" "  horiz-adv-x="1024" />
<glyph unicode="&#x09;" horiz-adv-x="1024" />
<glyph unicode="&#xa0;" horiz-adv-x="1024" />
<glyph unicode="!" horiz-adv-x="720" d="M227 119l23 20q61 59 94 101l25 30l26 -30l45 -52l72 -69l-23 -21l-49 -47q-18 -16 -45 -51l-26 -33l-25 33q-37 47 -94 98zM274 1303h35q102 0 160 20l14 6l-20 -516l-66 -465h-45l-43 455z" />
<glyph unicode="&#x22;" horiz-adv-x="796" d="M193 1329h145l-37 -520h-74zM459 1329h143l-35 -520h-73z" />
<glyph unicode="#" horiz-adv-x="1099" d="M55 508l23 110h207l45 238h-207l20 113h207l58 282h120l-55 -282h240l55 282h123l-55 -282h208l-22 -113h-209l-45 -238h209l-23 -110h-206l-66 -332h-121l64 332h-240l-63 -332h-123l63 332h-207zM406 618h239l47 238h-241z" />
<glyph unicode="$" horiz-adv-x="1099" d="M119 928q0 150 106 235q96 78 248 86l37 2v144h80v-144l57 -4l105 -6l59 -2q35 -2 55 4l25 8l-2 -18q-6 -66 -6 -133l2 -56q0 -31 2 -47l4 -26q-20 2 -31 2q-10 0 -31 -2v14q0 147 -211 193l-28 6v-465l39 -10q135 -39 200 -76q170 -96 170 -273q0 -156 -112 -254 q-102 -90 -264 -104l-33 -2v-160h-80v160h-92q-35 0 -76 4l-94 8q-43 4 -58 8l-30 3q-12 0 -21 -5l-8 -4l2 35l4 60l2 88q0 31 -2 53l-6 94q18 -2 31 -2q12 0 31 2l2 -25q18 -207 286 -247l29 -4v512l-72 20l-96 37q-139 49 -195 154q-29 57 -28 137zM287 997 q2 -96 65.5 -156.5t157.5 -97.5v441h-14q-211 0 -209 -187zM590 68h8q102 0 167.5 59t65.5 162q-2 88 -58 154.5t-155 101.5l-28 10v-487z" />
<glyph unicode="%" horiz-adv-x="1593" d="M84 901q0 166 91 271.5t255 105.5q279 0 279 -317q0 -166 -86 -279q-96 -125 -254 -125q-219 -2 -273 223q-14 64 -12 121zM209 948q0 -35 6 -80q14 -94 64 -157q57 -76 147 -74q156 0 158 252q0 113 -41 198q-53 111 -158 111q-143 2 -172 -180q-4 -41 -4 -70zM338 0 l819 1278h115l-819 -1278h-115zM885 315q0 166 92 272.5t258 106.5q111 0 178 -57q96 -82 96 -256q0 -127 -51 -227q-57 -113 -164 -156q-55 -25 -127 -25q-217 -2 -270 224q-12 61 -12 118zM1010 362q0 -29 6 -77q14 -94 63 -158q57 -78 146 -76q66 2 104 45q57 61 55 207 q0 115 -34 191q-53 119 -160 120q-145 4 -174 -180q-6 -45 -6 -72z" />
<glyph unicode="&#x26;" horiz-adv-x="1366" d="M47 369q0 258 283 374l20 9l-24 14q-162 86 -162 258q0 147 112 242q106 90 256 90q125 0 218 -70q100 -78 100 -199q0 -172 -193 -260l-53 -22l39 -17q227 -92 318 -223q31 -41 49 -84l20 -49l19 31q63 100 63 272q0 63 -21.5 89t-82.5 26h-25q2 20 2 31q0 10 -2 30 l37 -2l63 -4q43 -2 86 -2q47 0 78 2l62 4l20 2l-10 -34q-18 -66 -37 -113q-49 -143 -133 -285q-27 -45 -64 -98l-20 -33q0 -18 2 -22l14 -72l11 -82q16 -119 135 -119h10q-2 -18 -2 -28q0 -14 2 -33l-25 2l-57 4l-82 2l-84 -2l-82 -6l4 28l7 78v41l-5 49l-41 -43 q-92 -92 -194 -137q-82 -37 -178 -35q-190 0 -316 103q-135 109 -137 293zM231 430q0 -145 97.5 -239.5t242.5 -96.5q143 0 279 137q25 27 47 52l-10 47q-14 61 -56 125q-111 172 -380 258l-25 8l-45 -25q-150 -74 -150 -266zM322 1085q0 -96 63 -163q51 -55 123 -84l18 -9 q168 68 166 228q0 88 -49 157q-53 80 -137 78q-135 0 -174 -139q-10 -35 -10 -68z" />
<glyph unicode="'" horiz-adv-x="530" d="M193 1329h145l-35 -520h-76z" />
<glyph unicode="(" d="M117 487q0 326 86 512q115 250 370 353l11 4l10 -25l6 -14l-35 -27q-154 -111 -211 -295q-55 -176 -55 -510q0 -344 53 -508q61 -186 213 -294l35 -27l-6 -12q-6 -8 -10 -27l-11 4q-246 98 -356 322q-100 203 -100 544z" />
<glyph unicode=")" d="M82 -344l35 27q154 115 210 294t56 508q0 340 -55 510q-59 182 -211 295l-35 27q6 8 6 14l8 25l10 -4q252 -100 359 -322q100 -209 100 -543q0 -324 -86 -514q-113 -248 -373 -352l-10 -4l-8 27z" />
<glyph unicode="*" horiz-adv-x="1099" d="M213 870l63 29l109 51l74 39q-59 31 -74 37l-172 82q41 57 76 121l47 -41q39 -39 113 -90l53 -37l-6 80q-4 49 -13 125l-10 65q49 -4 74 -2l74 2l-11 -65q-6 -49 -12 -125l-4 -80l53 37q68 49 113 90l47 41q18 -35 35 -60l39 -61l-64 -31l-108 -51q-20 -8 -74 -37l74 -39 l172 -80l-39 -61q-14 -23 -35 -61l-47 43q-57 51 -113 90l-53 37l4 -80q6 -76 12 -125l11 -68q-57 4 -72 2l-76 -2l10 68l19 205l-53 -37q-61 -43 -113 -90l-47 -43q-35 63 -76 122z" />
<glyph unicode="+" horiz-adv-x="1099" d="M74 420v112h420v420h112v-420h420v-112h-420v-420h-112v420h-420z" />
<glyph unicode="," horiz-adv-x="530" d="M125 -205l41 27q96 78 96 149q0 55 -57 101l-68 53l31 16q76 43 125 105l12 14l21 -18q63 -68 63 -152q2 -152 -174 -295q-27 -23 -53 -41q-10 14 -17 23z" />
<glyph unicode="-" d="M68 436l20 27q20 27 33 45l33 49l10 18q29 -4 49 -4q31 -4 137 -4q137 0 197 4q18 0 67 4l-16 -20l-35 -47q-6 -10 -28 -49l-13 -23l-49 4q-80 6 -225 4l-117 -2z" />
<glyph unicode="." horiz-adv-x="530" d="M125 119l20 20q61 59 95 101l24 30l27 -30q23 -29 45 -52l70 -69l-21 -21l-49 -47q-27 -27 -45 -51l-27 -33l-24 33q-37 47 -95 98z" />
<glyph unicode="/" horiz-adv-x="606" d="M-117 -328l609 1684h118l-608 -1684h-119z" />
<glyph unicode="0" horiz-adv-x="1253" d="M0 725q2 -301 113 -487q143 -240 415 -238q174 2 313.5 89t221.5 243q129 248 131 594q2 301 -107 483q-135 225 -415 229l-86 -118q266 -4 356 -428q37 -174 37 -359q0 -143 -18 -254q-59 -358 -324 -360q-125 -2 -211 76q-51 47 -88 108q-133 213 -123 571l2 113 q0 49 19 146q72 387 350 387l86 118q-334 0 -522 -307q-152 -250 -150 -606z" />
<glyph unicode="1" horiz-adv-x="937" d="M0 1532q2 -14 8 -41l2 -45l21 4q16 4 51 8l51 6q123 0 123 -151l2 -836q0 -129 -14 -246q-16 -150 -170 -149h-39q0 -12 2 -25.5t2 -15.5q0 -4 -2 -18.5t-2 -22.5l323 10q96 4 185 -2l82 -6q246 -16 266 117q4 18 4 37q0 104 -111 129q-92 0 -112 -88q-4 -113 80 -127 q74 -10 73 75q0 20 -4 48q-12 47 -76 43q8 20 35 20q68 0 76 -82q6 -68 -32 -103.5t-103 -23.5q-25 4 -72 21q-14 4 -26 14q-76 8 -105 35q-41 39 -47 133l-8 94q-4 41 -4 141l8 1039q0 63 6 88l4 26l-26 -10q-64 -26 -166 -49q-70 -18 -121 -27q-39 -4 -121 -14z" />
<glyph unicode="2" horiz-adv-x="1226" d="M0 0l37 8q125 10 268 10h266q180 0 318 -8l184 -10q18 -2 25 16l6 17l61 303q0 2 2 8v43q0 193 -118 211q-18 2 -35 2q-104 0 -133 -108q0 -94 92 -111q111 -8 125 78q12 76 -78 76q-18 0 -43 -5q-49 -12 -45 -79q-14 10 -19 26q-14 78 82 88q51 4 97.5 -26.5t33.5 -81.5 q-8 -33 -22 -101q-8 -12 -14 -41l6 15q-12 -45 -31 -70q-31 -45 -100.5 -58.5t-231.5 -13.5h-143q-57 4 -211 9l-74 4l27 28q80 86 151 154l193 180q57 51 160 172q223 262 223 504q0 174 -112.5 286.5t-287.5 112.5q-178 0 -335 -110q-33 -25 -88 -74q-25 -20 -78 -72 l-33 -32l35 -27q8 -8 24 -33l33 29q162 150 326 149q209 0 278 -178q25 -61 25 -135q0 -82 -27 -158q-51 -141 -205 -321q-96 -113 -174 -195l-186 -200q-119 -127 -195 -213z" />
<glyph unicode="3" horiz-adv-x="1124" d="M0 176l35 -31q78 -72 221 -116q102 -31 213 -29q240 2 412 129q195 141 190 379q-2 168 -94 267t-270 108l-48 4l41 39q209 197 209 399q0 135 -97 224t-234 89q-54 0 -115 -16q-154 -49 -297 -184q-18 -10 -32.5 -26.5t-39.5 -45.5q-55 -70 -55 -125q0 -37 22 -67 q49 -68 113 -68q37 0 78 24q37 37 37 76q0 31 -21 66q-45 49 -88 49q-29 0 -57.5 -19.5t-28.5 -46.5q0 -39 66 -86q16 -10 30 -10q27 0 56 35q6 -25 -14.5 -43t-47.5 -18q-29 0 -61 26q-39 27 -47 86q-8 45 45 90q4 4 18.5 13.5t44 25t35.5 15.5q106 82 240 81 q262 -4 258 -266q0 -137 -84 -224t-221 -93q-23 -2 -45 4l-7 -45q-2 -16 -12 -60l37 9q27 4 96 8q195 -4 287 -103.5t92 -263.5q0 -145 -72 -237q-80 -104 -221 -105q-131 0 -276 86q-92 53 -141 115l-25 29l-12 -21l-50 -65z" />
<glyph unicode="4" horiz-adv-x="1363" d="M0 518l49 6q25 2 182 2h525v150h-525l129 192q51 74 144 207l252 357l-6 -1215q-2 -135 -138 -135h-32q2 -18 2 -41q0 -25 -2 -41l421 8h27v-2q10 0 30.5 -2t28.5 -2q16 4 50 4q145 16 159 121q2 16 2 33q0 106 -110 135q-100 0 -113 -94q-12 -94 62 -119q10 -4 18 -4 q76 -14 76 76q0 20 -4 45q-12 53 -80 45q16 31 61 18q47 -12 56 -82q4 -51 -29 -100q-33 -39 -100 -31q-10 0 -13 4q-45 10 -94 45l-4 6q-25 16 -43 41q-20 41 -20 164l-5 217h211l35 80q8 29 23 51l18 29l-287 -10l5 452q0 100 4 226l12 284l-23 -2q-24 -10 -71 -6l-49 2 l-33 6z" />
<glyph unicode="5" horiz-adv-x="1198" d="M0 170l37 -27q201 -143 442 -143q145 0 281.5 63.5t228.5 176.5q119 147 119 344q0 356 -338 440q-86 23 -176 23q-94 0 -166 -9q-33 -4 -84 -10l-25 -6l3 268q2 152 108 154l205 2q113 2 225 -4l131 -8q23 -35 33 -68q14 -82 -31 -112.5t-96 -26.5q-82 10 -82 78 q0 25 21 36q-4 -68 43 -77q25 -4 45 -4q88 0 75 73q-12 86 -122 78q-90 -16 -91 -111q25 -109 129 -108q16 0 33 2q131 18 123 244l4 24q10 39 23 72l43 104l-303 -16q-50 -2 -152 -2q-133 0 -223 4l-227 14v-53v-115l-15 -426q0 -8 -16 -184l-2 -31l24 7q100 23 140 28 q76 14 131 15q281 2 370 -238q27 -76 27 -158q-4 -262 -178 -340q-63 -29 -127 -24q-35 -4 -72 6q-59 4 -127 33q-133 55 -225 139l-33 31l-14 -21q-66 -90 -103 -121z" />
<glyph unicode="6" horiz-adv-x="1191" d="M0 578q0 -338 223 -490q129 -90 312 -88q254 2 426 170t174 418q2 88 -29 182q-43 143 -160 223t-268 80q-82 0 -160 -24q-127 -43 -252 -160l-43 -41l39 -60q147 143 311 144q256 0 336 -291q23 -84 23 -154q0 -193 -125 -317q-80 -80 -186 -80q-170 0 -295 164 q-55 76 -86 170q-37 113 -35 221q-2 25 4 74l4 20q16 23 49 49l-39 60q7 24 21 65q109 358 516 551q76 35 223 84l55 19l-20 71l-66 -18q-346 -96 -579 -287q-270 -219 -346 -534q-27 -104 -27 -221z" />
<glyph unicode="7" horiz-adv-x="1177" d="M2 1262q16 -141 119 -156q18 -2 35 -2q106 0 131 108q0 96 -90 113q-113 8 -125 -80q-12 -74 78 -74q20 0 45 5q47 10 43 77q16 -8 18 -24q16 -80 -82 -90q-51 -4 -96 26.5t-33 112.5q18 55 51 94q68 68 189 72l110 2q86 2 234 -4l262 -15l-367 -675q-90 -164 -200 -359 q-117 -205 -203 -336l-39 -57l35 6q37 4 119 4q57 0 92 -4l37 -6l18 55q102 289 322 766q96 209 235 494q82 164 150 272l32 51l-55 -6q-110 -10 -274 -10q-57 -4 -154 0l-514 16q-27 0 -37 -11t-14 -36l-49 -168q-6 -16 -17 -51q-6 -4 -6 -16q-4 -57 0 -94z" />
<glyph unicode="8" horiz-adv-x="1198" d="M0 412q0 -143 102 -256q139 -156 426 -156q260 0 430 139q180 147 183 367q2 236 -348 366l-64 25l-16 72l-74 -37q-2 0 -70 29q-258 113 -258 309q0 127 81 201.5t210 72.5q131 -2 201.5 -80t70.5 -209q4 -184 -161 -286l16 -72l53 21q287 115 287 387q0 166 -137 256 q-117 78 -289 77q-209 0 -364 -110q-181 -127 -181 -320q-2 -98 49 -188q41 -70 103 -113q39 -37 92 -61l41 -19l-2 -79q35 20 88 47l205 -74q274 -100 274 -309q0 -96 -63.5 -180.5t-155.5 -116.5q-63 -20 -129 -21q-180 0 -281.5 96.5t-103.5 253.5q-2 133 84 234 q39 41 82 70l2 79q-74 -27 -111 -43q-59 -27 -104 -55q-168 -115 -168 -317z" />
<glyph unicode="9" horiz-adv-x="1146" d="M0 1120q2 -203 130 -325.5t333 -122.5q135 0 250 51l114 51l-8 72q-102 -63 -239 -64q-371 4 -371 373q0 166 82 275q92 119 256 118q170 0 262 -164q74 -129 76 -315q0 -41 -25 -184l-2 -17l-39 -22l8 -72l-18 -41q-188 -428 -539 -635l-45 -24q12 -12 27 -33l20 -41 l35 20q389 240 617 586q88 133 128 263t40 251q0 231 -135.5 374.5t-376.5 143.5q-240 0 -404 -141q-178 -150 -176 -377z" />
<glyph unicode=":" horiz-adv-x="530" d="M123 836l22 20l50 49l45 51l24 31l27 -31q31 -41 94 -100l21 -20l-21 -21q-59 -51 -94 -98l-27 -33l-24 33q-18 25 -45 51l-50 47zM125 119l20 20q61 59 95 101l24 30l27 -30q23 -29 45 -52l70 -69l-21 -21l-49 -47q-27 -27 -45 -51l-27 -33l-24 33q-37 47 -95 98z" />
<glyph unicode=";" horiz-adv-x="530" d="M115 836l22 20l49 49l45 51l25 31l27 -31q33 -41 94 -100l20 -20l-20 -21q-57 -51 -94 -98l-27 -33l-25 33q-18 25 -45 51l-49 47zM121 -205l39 27q16 10 45 43q51 57 51 106q0 53 -57 101l-45 37l-23 16l33 16q78 43 123 105l12 14l20 -18q66 -66 66 -152 q0 -158 -176 -295l-51 -41q-10 14 -17 23z" />
<glyph unicode="&#x3c;" horiz-adv-x="2048" d="M412 535v145l1224 555v-160l-1024 -469l1024 -454v-160z" />
<glyph unicode="=" horiz-adv-x="1099" d="M74 307v113h950v-113h-950zM74 537v112h950v-112h-950z" />
<glyph unicode="&#x3e;" horiz-adv-x="2048" d="M412 -8v162l1013 460l-1013 455v166l1224 -547v-147z" />
<glyph unicode="?" horiz-adv-x="872" d="M139 1167l31 29l76 66q80 68 160 86q33 8 69 8q123 2 204 -77t81 -198q-2 -98 -64 -180q-41 -55 -129 -137q-100 -92 -135 -133q-74 -88 -74 -166q-2 -66 39 -111l11 -12q-16 -8 -23 -12l-20 -21l-19 19q-72 72 -72 172q-2 109 142 295l61 79q72 96 72 170 q0 150 -164 150q-113 0 -197 -55l-18 -13q-10 25 -31 41zM244 119l20 20l49 49q25 23 47 52l25 30l25 -30q33 -41 94 -101l22 -20l-22 -21q-57 -51 -94 -98l-25 -33l-25 33q-20 25 -47 51z" />
<glyph unicode="A" horiz-adv-x="1701" d="M0 0l90 8q37 3 96 3q30 0 66 -1l141 -2q10 0 35 -2h33l47 -6q-6 31 -4 39q-2 8 4 39h-23q-129 0 -129 106q0 41 21 109l35 113q27 92 53 145l55 143l254 8l17 95q-123 0 -195 4l-37 2l215 598l211 -598q-47 -4 -61 -4q-45 -2 -133 -2l-17 -95q43 0 178 -6l68 -2l31 -78 q23 -57 65 -190l135 -426l37 6q16 0 62 4h73q23 0 62 -2h51l84 -8q0 10 -2 23v16v16q2 12 2 23h-18q-84 0 -138 84q-33 49 -78 149q-96 211 -169 430l-252 750q-16 49 -27 102l-2 45l-88 -6q-45 -2 -98 -2h-27q-39 4 -61 2q-180 -8 -197 -116q-2 -16 -2 -33q0 -98 104 -125 q90 0 109 88v11q0 73 -49 97q-23 8 -29 9q-14 4 -27 0q-41 -6 -41 -72q0 -18 2 -43q10 -42 58 -42q8 0 16 1q-8 -22 -33 -22q-10 0 -24 4q-41 10 -49 77q-2 10 -2 19q0 40 28 76q16 23 45 26q25 6 58 0q45 -12 96 -51q-2 -27 -20 -55q-12 -45 -33 -105q-16 -47 -58 -151 l-448 -1026q-59 -121 -154 -121h-12q2 -18 2 -39q0 -20 -2 -39z" />
<glyph unicode="B" horiz-adv-x="1404" d="M0 1468q0 -98 100 -120q88 0 107 84q0 7 1 13q0 61 -36 85q-14 14 -41 18q-20 2 -41 -6q-27 -16 -27 -62q0 -20 5 -46q9 -41 61 -41h10q-10 -25 -55 -15q-39 8 -49 74q-1 7 -1 15q0 39 27 75q2 10 15 14q22 17 58 17q13 0 28 -2q53 -16 94 -51l10 -936v-140 q0 -193 -28.5 -265.5t-131.5 -80.5q-10 -2 -30 -2v-73l114 6l99 4h-2q33 0 110 -8l205 -21q51 -4 113 -4q82 0 159 14q199 39 324 158q139 131 139 324q0 289 -303 378l-67 21l-41 6l-76 33l-25 -31h-372v-88h153q35 0 79 -2t56 -2q174 -18 281 -154q59 -74 78 -163 q10 -41 10 -95q0 -143 -86 -225q-84 -80 -222 -80h-7q-164 2 -301 99l-27 16l-4 57q-6 25 -8 189l-2 448l2 529q0 41 6 63l6 35q20 4 63 10q51 8 109 8q324 0 324 -321q0 -113 -58 -215q-29 -53 -55 -78l76 -33q35 31 53 47q145 141 192 279q20 61 21 119q-4 292 -405 292 h-3q-85 0 -288 -20q-6 0 -123 -12l-123 4q-59 4 -57 4q-80 -4 -117 -21q-76 -37 -76 -125z" />
<glyph unicode="C" horiz-adv-x="1425" d="M0 813q0 -411 260 -641q197 -172 477 -172q311 0 555 197l66 53l-25 31l-20 34l-33 -22q-172 -119 -393 -119q-324 0 -496 211q-162 195 -164 524v7q0 255 135 446q127 182 396 182q176 0 311 -76q86 -47 121 -106q2 0 4 -4h-4q6 -2 6 -6q31 -41 45 -84q2 -18 2 -33 q0 -29 -10 -49q-2 -4 -19 -23q-38 -25 -75 -25q-8 0 -17 1q-61 6 -73 49q-10 41 16 55v-10q0 -52 41 -62q23 -4 41 -4q74 0 74 54q0 8 -2 16q-11 74 -103 74h-14q-82 -16 -82 -105q23 -100 121 -100q96 0 127 80q14 39 22 108v21q0 12 2 43q0 63 13 186l18 94 q-47 -30 -91 -30h-3q-14 0 -101 8l-124 12q-99 10 -199 10q-360 0 -581.5 -229t-223.5 -590v-6z" />
<glyph unicode="D" horiz-adv-x="1748" d="M0 1466q0 -98 100 -120q88 0 107 84v11q0 80 -57 99q-6 0 -19 4q-23 4 -33 -2q-32 -10 -32 -64q0 -21 2 -46q11 -41 62 -41h9q-10 -25 -55 -15q-39 8 -49 72q-1 8 -1 15q0 40 27 77q16 20 38 25.5t63 1.5q53 -14 94 -49q16 -45 16 -115v-2q10 -55 17 -205v-127v-485 q0 -90 -2 -142l-6 -104q-6 -111 -27 -158q-37 -78 -127 -82q-10 -2 -31 -2q2 -14 2 -35q0 -23 -2 -38l166 6q16 0 49 2t47 2q37 -4 144.5 -18.5t150.5 -14.5h76q432 0 672 248q266 274 266 672q0 602 -555 698q-115 20 -238 20q-23 0 -159 -4l4 -86q258 0 434 -116 q283 -186 287 -613q0 -123 -23.5 -230.5t-70.5 -199.5q-135 -262 -508 -262q-94 0 -133 10q-72 4 -170 45l-43 23l-17 233q-2 47 -2 142l4 720q0 31 2 77t2 59l11 92l75 10q29 4 152 10l-4 86l-293 -24q-60 -4 -92 -4h-19l-73 2q-2 2 -11 2h-22q-184 0 -203 -111 q-2 -16 -2 -33z" />
<glyph unicode="E" horiz-adv-x="1314" d="M0 8l41 2q86 6 98 6l959 -16h4q72 0 84 68l59 176q6 12 6 26q0 209 -112 228q-18 2 -35 2q-98 0 -123 -103q0 -90 86 -108h9q95 0 110 78q1 7 1 14q0 53 -71 53h-2q-20 0 -45 -4q-41 -9 -41 -62v-10q-18 8 -18 33q0 10 2 25q12 39 75 47q10 2 19 2q39 0 74 -27 q30 -22 30 -73v-15q-2 -10 -2 -14q-18 -57 -43 -88l-8 -8h2q-55 -55 -110 -70q-41 -20 -134 -37q-157 -25 -314 -25l-54 1l-146 2l-8 90q-10 121 -10 430v160l53 2q53 4 160 8l315 6q84 0 115 -6l37 -2l27 49q8 14 32 59l-75 -2q-45 -4 -158 -6l-187 -2q-44 -1 -75 -1 q-63 0 -78 3q-37 0 -100 8l-66 8l4 308q0 78 4 202l10 103l119 4q26 1 57 1q78 0 189 -7q326 -25 326 -205v-82q14 2 30 2q20 0 35 -2v33q0 12 4 67l17 166q4 23 14 97l6 30l-33 4q-39 0 -125 2l-292 -10q-193 -6 -240 -6h-307q-57 0 -142 8h-59q2 -14 2 -35q0 -20 -2 -39 h33q84 -4 127 -90q27 -55 28 -157l9 -729q0 -76 -4 -144l-5 -106q-6 -113 -28 -162q-37 -82 -129 -82q-8 -4 -31 -4q2 -14 2 -35q0 -25 -2 -39z" />
<glyph unicode="F" horiz-adv-x="1153" d="M0 0l289 10l293 -10q-2 18 -2 39q0 20 2 39h-27q-127 0 -149 108q-12 43 -14.5 99.5t-4.5 117.5l-2 291l215 8q80 4 160 17q31 2 147 22q47 8 119 25l29 10l8 35q0 10 12 45l-147 -8q-59 -4 -102 -4q-29 0 -50 2l-391 16l6 418q0 92 6 174l6 66l64 8h53q39 2 62 2 q96 0 188 -17q123 -20 174 -86q25 -33 35 -98q6 -29 25 -78q0 -10 4 -26v-11q0 -49 -31 -80q-28 -28 -71 -28q-10 0 -21 2q-66 10 -76 49q-4 14 -4 25q0 25 20 32v-10q0 -52 41 -61q25 -4 45 -4q72 0 72 51q0 7 -2 16q-11 78 -109 78h-10q-84 -18 -84 -108q23 -102 121 -103 q16 0 35 2q98 16 113 150q0 18 2 28v23q0 20 8 94q6 51 16 129l25 139l-64 -10q-16 0 -60 -3t-73 -3l-901 6q2 -16 2 -37q0 -20 -2 -35h18q158 0 166 -141l11 -217q2 -53 2 -141v-484q0 -88 -2 -141l-7 -108q-4 -111 -28 -162q-39 -84 -129 -84h-31q2 -18 2 -39 q0 -20 -2 -39z" />
<glyph unicode="G" horiz-adv-x="1839" d="M0 795q0 -131 43 -271q158 -522 854 -524q307 0 535 76l22 8l-6 12q-14 18 -20.5 51t-6.5 70q-1 3 -1 23.5t1 58.5l2 254q2 104 74 147q2 0 4 2q43 35 90 46q4 4 19 4q8 1 15 1q44 0 69 -32q23 -31 23 -71q0 -8 -1 -17q-6 -66 -47 -76q-14 -4 -25 -4q-23 0 -30 20 q6 -1 12 -1q46 0 57 42q4 25 5 43q0 70 -53 70q-8 0 -17 -2q-2 0 -4 -2q-8 0 -15 -2q-55 -22 -55 -98v-11q18 -86 107 -86q102 27 102 121q0 14 -4 33q-14 90 -135 106q-25 5 -59 5h-11l-250 -7q-12 -1 -28 -1q-33 0 -84 3l-170 9q2 -16 2 -37q0 -23 -2 -37l112 -10 q104 -10 109 -144q4 -59 4 -96v-172q0 -106 -23 -152l-14 -26q-23 -6 -88 -17q-41 -8 -133 -8q-340 0 -549 226q-203 219 -203 563q0 291 150 469q160 190 446 190q170 0 330 -63q197 -78 209 -264l4 -39q14 4 33 4q16 0 33 -4v47q0 217 22 352l10 61l-22 -20 q-29 -25 -80 -25l-346 37q-59 8 -178 8q-121 0 -205 -12q-303 -45 -473 -285q-158 -219 -160 -534v-12z" />
<glyph unicode="H" horiz-adv-x="1890" d="M0 0l135 8q45 2 141 2t150 -2l160 -8v39v39h-35q-23 0 -68 12q-72 23 -86 111q-6 37 -8 86v135v399l33 8l747 7q18 -2 62 -7l31 -8v-246q0 -135 -7 -210l-6 -115q-8 -92 -37 -127q-37 -45 -120 -45h-29q0 -8 2 -20.5t2 -16.5q0 -6 -2 -18.5t-2 -22.5l33 2q18 2 61 6h88 q63 2 103 2q145 0 184 -2l117 -8q-4 33 -2 41q-2 8 2 37h-21q-137 0 -160 145q-4 31 -10 103l-4 880q0 55 4 111q4 35 10 100q14 90 72 125q2 0 8 6q45 35 84 43q6 2 15 2q11 1 21 1q46 0 73 -29q25 -37 25 -75q0 -9 -1 -17q-6 -66 -51 -78q-13 -3 -23 -3q-25 0 -34 21 q9 -1 17 -1q49 0 55 42q4 25 4 45q0 71 -54 71q-7 0 -14 -1q-77 -13 -77 -100q0 -8 1 -17q14 -90 107 -90q104 27 104 127q0 14 -4 33q-12 96 -149 110q-34 4 -60 4h-16h-6l-56 -4q-82 -2 -125 -2l-321 8q0 -8 2 -20t2 -16q0 -2 -2 -14.5t-2 -22.5l49 -4q96 -10 121 -70 q23 -39 27 -143q-1 -20 -1 -51t1 -74l2 -287l-31 -4q-16 -6 -66 -6l-776 10v354q4 88 14 156q14 98 99 108l84 11v39v34l-146 -6q-74 -2 -141 -2q-61 0 -141 2l-158 6q2 -12 2 -34q0 -23 -2 -39h20q98 0 138 -82q20 -41 32 -166q4 -59 5 -111v-772q0 -197 -33 -270 q-39 -86 -127 -86h-35q2 -18 2 -39q0 -23 -2 -39z" />
<glyph unicode="I" horiz-adv-x="780" d="M0 1491q0 -98 104 -125q90 0 109 88v11q0 78 -53 100q-16 6 -25 6q-9 2 -16 2q-51 0 -51 -70q0 -22 2 -47q10 -42 57 -42q8 0 16 1q-8 -22 -33 -22q-10 0 -24 4q-41 10 -49 78q-2 10 -2 19q0 40 28 75q22 29 73 29q11 0 24 -1q2 0 6 -4q45 -10 96 -49q59 -35 74 -127 q4 -33 12 -100q6 -86 6 -111v-774q0 -25 -6 -106q-14 -244 -158 -248h-30v-78l106 8q35 2 199 2q96 0 188 -4l90 -6q-4 31 -2 39q-2 8 2 39h-32q-94 4 -131 86q-25 59 -29 164l-2 106q-2 106 -2 144v485q0 35 2 143l2 111q2 102 29 160q37 82 131 86q10 2 32 2q-4 31 -2 39 q-2 10 2 34h-24q-74 -9 -183 -9q-36 0 -77 1l-201 6v2h-65q-23 0 -33 -2q-141 -12 -158 -112q-2 -18 -2 -33z" />
<glyph unicode="J" horiz-adv-x="710" d="M0 104q12 -29 33 -104l98 41q33 14 86 49q102 66 150 107l28 22l4 1151q0 47 9 84q10 76 53 102q4 2 4 5q37 29 76 38h14q8 1 16 1q35 0 54 -23q23 -31 23 -65q0 -7 -1 -13q-8 -55 -41 -61q-37 -12 -47 12h5q46 0 54 35q4 20 5 37q0 59 -43 59q-7 0 -15 -2h-8 q-2 -2 -8 -2q-47 -17 -47 -83v-11q16 -70 90 -70q84 18 84 100q0 123 -172 123l-187 -6q-12 -1 -27 -1q-32 0 -79 3l-135 6q4 -12 4 -30t-4 -31l35 -2q123 -8 127 -203l2 -96v-111v-663q-4 -145 -15 -232q-10 -102 -46 -129.5t-142 -34.5z" />
<glyph unicode="K" horiz-adv-x="1763" d="M0 0l276 10q38 2 75 2q57 0 114 -4l121 -8q-4 18 -4 39q0 20 4 39h-11q-100 0 -149 78q-31 51 -33 172l-4 106q-2 106 -2 144v151l117 92l624 -821l27 6l348 -6q158 12 174 115q4 18 4 35q0 100 -104 122q-90 0 -111 -86v-10q0 -97 78 -108q8 -1 15 -1q55 0 55 72 q0 20 -4 45q-11 41 -64 41h-10q8 20 35 21q10 0 22 -4q41 -10 52 -76q1 -11 1 -21q0 -48 -31 -76q-29 -26 -74 -26q-13 0 -28 2q-4 0 -12 4q-37 10 -71 37q-4 4 -13 4q-74 23 -143 94q-25 27 -82 95l-520 659l610 520q106 90 184 103l37 4q-2 16 -2 39t2 34h-565 q6 -27 6 -34q0 -6 -6 -39l35 -2q104 -8 104 -52q-1 -69 -207 -273q-202 -200 -419 -361l-64 -48l2 508q2 100 32 157.5t132 66.5l33 4q-4 16 -4 39t4 34l-281 -8q-36 -1 -70.5 -1t-68.5 1q-39 2 -105 6l-61 2q2 -16 2 -36t-2 -37q23 0 31 -2q129 -4 149 -146q8 -57 10 -100 l5 -111q4 -53 4 -143v-584q0 -106 -19 -241q-20 -156 -149 -160h-31q2 -18 2 -39q0 -20 -2 -39z" />
<glyph unicode="L" horiz-adv-x="1329" d="M0 1489q0 -98 104 -125q88 0 109 88v9q0 93 -78 108q-8 1 -15 1q-54 0 -54 -69q0 -22 4 -47q10 -42 57 -42q8 0 16 1q-8 -22 -33 -22q-10 0 -24 4q-41 12 -49 78q-2 10 -2 20q0 40 26 74q24 29 75 29q10 0 22 -1q2 0 8 -4q47 -10 90 -47q2 0 6 -2q59 -31 72 -123 q6 -33 12 -104l6 -109v-143v-481v-144l-6 -106q-4 -106 -31 -164q-37 -82 -127 -82q-10 -4 -30 -4v-74l712 10q82 0 129 -2l191 -16l76 449q-23 0 -27 2l-41 4l-10 -54q-33 -176 -146 -241q-92 -51 -286 -51q-76 0 -131 8q-33 4 -66 10q-6 70 -10 127q-6 80 -6 188v764 q0 20 6 109q4 72 12 104q16 135 135 142l45 2q-6 33 -4 43q-2 5 4 32l-307 -8q-51 0 -151 2l-68 4q-20 0 -57 -4q-139 -12 -156 -110q-2 -18 -2 -33z" />
<glyph unicode="M" horiz-adv-x="2250" d="M0 0l35 2q20 2 63 6l406 -8q-4 31 -2 39q-2 10 2 39h-25q-172 0 -170 209l13 1079l610 -1358q16 2 39 2q20 0 35 -2l340 727q80 178 290 637l15 -242v-116v-824q-10 -112 -123 -112h-2h-33q2 -18 2 -39q0 -20 -2 -39l289 10q25 1 48 1q47 0 89 -3l63 -6q31 -2 60 -2 q-2 18 -2 41q0 20 2 37h-37q-137 0 -147 137l-9 102q-2 25 -6 162l-14 649q-4 119 -4 127l4 101q2 113 18 147q8 18 33 33l12 12q31 23 84 41q16 2 45 2q39 -4 60 -30q27 -37 27 -78q0 -9 -1 -17q-10 -66 -51 -75q-45 -10 -55 16h10q54 0 62 41q4 27 4 47q0 70 -54 70h-16 q-79 -13 -79 -102q0 -8 1 -17q20 -86 111 -86q104 25 104 123q0 16 -4 37q-14 82 -117 106q-20 2 -67 6q-45 0 -70 -2h-164q-23 2 -71 8h-33l-27 -65q-16 -41 -55 -137l-176 -424q-61 -150 -123 -299q-74 -170 -137 -291l-70 -135l-420 944l-157 407l-88 -6l-295 6 q4 -11 4 -34t-4 -39h24q111 0 119 -107l-14 -917q0 -39 -15 -166l-26 -174q-31 -123 -129 -123h-29q2 -18 2 -39q0 -20 -2 -39z" />
<glyph unicode="N" horiz-adv-x="1990" d="M0 0l473 6l31 -6q-2 18 -2 39q0 20 2 39h-15q-104 0 -141 108q-23 68 -31 187q-10 141 -10 385v563l107 -139q61 -82 213 -264q410 -489 694 -789l117 -121q18 2 47 2q25 0 45 -2l-4 172v117l24 815q2 43 9 148q4 98 14 151q18 96 59 131q12 6 15 10q37 25 75 37q2 2 7 2 q21 4 38 4h3q43 0 64 -29q26 -35 27 -77q0 -8 -1 -16q-10 -68 -52 -78q-13 -3 -23 -3q-25 0 -32 21q8 -1 16 -1q45 0 56 42q4 25 4 43q0 73 -54 73q-7 0 -14 -1q-79 -13 -79 -100q0 -8 1 -17q18 -90 109 -90q104 29 104 125q0 16 -4 35q-14 104 -168 114q-24 1 -43 1t-34 -1 h-39q-35 0 -78 -3t-55 -3l-201 8h-53q2 -12 2 -34q0 -23 -2 -39h22q115 0 143 -103q18 -72 23 -192l6 -152q2 -76 2 -237v-525q-33 29 -76 70q-281 281 -510 557q-287 346 -430 616l-22 39l-88 -6q-57 -2 -107 -2l-149 2l-35 6q2 -12 2 -34q0 -23 -2 -39h16q78 0 142 -74 q14 -18 41 -57l-9 -873q-10 -207 -22 -282q-37 -201 -133 -201h-35q2 -18 2 -39q0 -20 -2 -39z" />
<glyph unicode="O" horiz-adv-x="1660" d="M0 799q0 -205 88 -385q92 -193 256 -297q182 -117 420 -117q442 0 680 362q139 211 139 488q0 350 -204.5 567t-555.5 221l-61 -94q104 0 199 -43q147 -66 237 -209q74 -117 113 -248q45 -162 45 -299q0 -248 -115 -436q-126 -213 -374 -213h-5q-293 2 -481 266 q-150 211 -154 535v9q0 225 99 390q147 244 436 248l61 94q-359 0 -590 -233q-121 -119 -172 -270q-61 -174 -61 -336z" />
<glyph unicode="P" horiz-adv-x="1284" d="M0 0l131 8q57 3 108 3q25 0 48 -1l288 -10q-2 18 -2 39q0 20 2 39h-32q-98 0 -129 65q-20 49 -25 152l-4 117q-4 59 -4 155v469q0 78 4 228l2 122l12 142q29 6 60 8q57 8 112 8q193 0 307.5 -117.5t116.5 -312.5v-9q0 -72 -30 -155q-84 -231 -361 -231h-10q-55 10 -84 29 q-56 37 -56 83q0 4 1 9q8 49 50 87q26 24 53 24q17 0 34 -9q35 -25 26 -51q-27 31 -51 31q-16 0 -28 -11q-63 -45 -64 -80q0 -25 26.5 -44t53.5 -19q41 0 86 45q20 33 21 64q0 39 -37 73q-39 25 -76 25q-59 0 -107 -64q-23 -31 -22 -67q0 -76 104 -174q6 -4 19 -15l63 -12 q248 0 432.5 157.5t184.5 407.5q0 217 -150 330q-129 96 -358 100q-37 -2 -107 -6q-10 0 -53 -2q-49 -6 -84 -8l-330 -14l-141 6q2 -14 2 -37q0 -20 -2 -37h12q82 0 119 -28.5t45 -108.5l10 -94q6 -23 7 -121l2 -621q0 -80 -2 -139l-7 -109q-4 -109 -28 -157 q-37 -84 -127 -84h-31q2 -18 2 -39q0 -20 -2 -39z" />
<glyph unicode="Q" horiz-adv-x="1902" d="M0 952q0 -147 57 -286q76 -180 221.5 -273.5t342.5 -95.5h21q42 0 91 6l-26 70h-9q-80 0 -166 35q-123 51 -210 172q-133 180 -136 454v9q0 180 80 315q57 96 149.5 149.5t207.5 53.5q172 0 295 -125q104 -106 155 -285q37 -129 37 -244q0 -211 -94 -360 q-110 -174 -305 -174h-4l26 -70l49 8l136 -106q186 -145 415 -189q90 -16 174 -16q43 0 109 6q16 0 45 4t51 17q10 10 33 28q65 69 65 123q0 31 -18 55q-39 53 -86 54q-29 0 -59 -21q-31 -29 -31 -59q0 -25 18 -49q33 -39 68 -39q23 0 44 14t21 35q0 31 -51 68q-11 7 -22 7 q-22 0 -43 -26q-6 27 22 41q12 6 25 6q23 0 49 -20q31 -25 37 -66q1 -4 1 -8q0 -33 -44 -68q-39 -18 -76 -24h-18q-139 0 -371 117l-141 69q-84 43 -119 64l-72 39l4 4q84 49 139 100q209 188 209 518q0 295 -171 471t-461 178h-8q-210 0 -367 -108q-160 -110 -240 -305 q-49 -127 -49 -273z" />
<glyph unicode="R" horiz-adv-x="1660" d="M0 150q0 98 104 124q88 0 105 -88q1 -9 1 -17q0 -84 -75 -97q-9 -2 -17 -2q-55 0 -55 73q0 18 4 41q10 42 58 42q8 0 16 -1q-14 29 -55 19q-45 -12 -51 -78q-1 -8 -1 -19q0 -38 25 -72q22 -30 69 -30q18 0 38 4q4 0 22 4q6 2 17.5 8.5t17.5 8.5q12 6 35 20q33 10 65 41 q51 45 80 82q23 23 64 82l321 457l-36 20q-358 193 -359 496q0 241 219 327q94 39 420 43l246 -24q77 -8 118 -8h15l172 8q-2 -14 -2 -35q0 -23 2 -39h-18q-143 0 -162 -131q-6 -57 -6 -102l-9 -740q0 -43 2 -139q2 -66 7 -109l6 -104q10 -137 149 -137h31q-2 -18 -2 -39 q0 -20 2 -39l-283 10q-25 1 -51 1q-52 0 -110 -3l-131 -8q2 18 2 39q0 20 -2 39h22q98 0 135 53q27 37 29 148l8 432h-190l8 90l155 8l27 8v270q0 66 -6 175l-12 272l-60 4q-57 6 -96 6q-291 0 -375 -221q-33 -88 -33 -170q0 -287 263 -340q61 -12 137 -12l-8 -90l-52 -64 q-63 -80 -122 -166l-154 -225q-63 -94 -115 -178l-45 -78l-24 4q-23 6 -66 6h-135l-47 -6h-29q-27 -2 -53 0q-150 8 -166 113q-4 18 -4 33z" />
<glyph unicode="S" horiz-adv-x="1181" d="M0 33l18 8q6 2 39 6q20 0 62 -4l119 -18q53 -8 161 -21q76 -4 131 -4q264 4 408 111q186 141 186 372q0 264 -276 375q-96 35 -285 109q-297 121 -297 330v6q1 37 13 86q57 174 301 176h8q145 0 243 -68q117 -80 125 -223v-41q16 4 39 4q25 0 41 -4l-8 39q-6 38 -6 62v12 l12 182l21 110l-31 -10q-39 -12 -90 -12q-59 0 -115 4l-108 10q-82 8 -142 8q-223 0 -358 -92q-156 -108 -156 -316v-5q2 -252 256 -375q43 -27 127 -59l144 -56q49 -18 131 -59q200 -101 200 -291v-6q-2 -166 -112 -246q-76 -55 -217 -57h-8q-158 0 -292 74 q-136 76 -169 215q0 6 -6 22v8h-3q-4 6 -11 25.5t-11 44.5q-8 14 -8 20q-2 14 -2 27q0 44 26 72q27 30 72 30q11 0 23 -2q66 -10 73 -49q10 -45 -16 -55v10q0 54 -43 62q-25 4 -43 4q-70 0 -70 -51q0 -8 2 -17q13 -76 107 -76h10q84 18 84 107q-23 100 -123 100 q-14 0 -33 -2q-98 -14 -108 -164q-1 -22 -1 -39t1 -30v-15v-18l-10 -238q0 -31 -13 -75z" />
<glyph unicode="T" horiz-adv-x="1445" d="M0 1237q16 4 33 4q18 0 33 -4l4 37q0 16 12 57q33 98 110.5 129t172.5 33l208 6l11 -176q2 -47 2 -131q4 -98 4 -135v-484q0 -63 -6 -165l-4 -101q-2 -33 -17 -108q-23 -121 -127 -121h-43q2 -18 2 -39q0 -20 -2 -39l459 8q27 0 51 -2h27l45 -6q-4 18 -4 39q0 20 4 39 h-19q-168 0 -170 246l-8 723q-1 26 -1 51q0 50 3 94l17 307h221q27 0 106 -6q136 -8 136 -148v-14q-4 -59 -33 -100q-37 -57 -86 -57h-6q-47 10 -88 52q-26 26 -26 53q0 16 9 32q19 31 40 31q7 0 13 -3q-31 -27 -30 -53q0 -14 10 -26q45 -66 82 -66q25 0 43 27.5t18 54.5 q0 43 -45 86q-33 20 -61 20q-41 0 -76 -36q-27 -39 -27 -76q0 -59 66 -107q30 -22 62 -22h3q76 0 172 100q4 2 11 10q2 2 2 49v3q0 -12 2 28q6 76 31 193q10 47 22 82l10 32l-63 -8q-32 -4 -88 -5q-18 0 -39 1l-1073 4q-23 0 -58 8l-8 -127q-4 -23 -10 -84z" />
<glyph unicode="U" horiz-adv-x="1902" d="M0 1565h27q152 0 166 -140q2 -25 2 -92q0 -47 -2 -145l-11 -397q-3 -95 -3 -145q0 -25 1 -38q0 -49 2 -133q23 -297 197 -403q119 -72 274 -72q180 0 383 115l244 139l4 -191q0 -6 6 -40q31 0 35 4l51 2l246 -2q16 -2 18 0q154 6 170 112q2 16 2 33q0 96 -102 123 q-90 0 -104 -88q-1 -9 -1 -18q0 -87 74 -99q8 -2 16 -2q52 0 52 74q0 18 -4 43q-5 42 -55 42q-8 0 -17 -1q8 22 34 22q11 0 24 -4q45 -12 51 -78v-10q0 -40 -27 -82q-25 -28 -68 -28q-17 0 -36 4q-4 0 -11 2q-43 18 -71 39q-6 2 -11 8q-35 20 -51 82q-20 78 -20 174v762 q0 70 12 319q4 80 10 119l11 63l-33 -2q-47 -8 -178 -8h-207q2 -12 2 -29q0 -20 -2 -34h43q78 -4 108 -60q43 -77 43 -334v-45l-8 -671q0 -35 -20 -107l-41 -35q-152 -135 -428 -137q-205 0 -309.5 90t-112.5 295l-8 170q-2 36 -2 74t2 78l18 442q0 31 10 139q4 45 13 117 l12 57l-37 -2q-35 -8 -76 -8h-307q2 -12 2 -29q0 -20 -2 -34z" />
<glyph unicode="V" horiz-adv-x="1949" d="M0 1565h16q57 0 95 -45q20 -23 55 -97q27 -51 76 -159l436 -1100q16 -39 43 -125l10 -39l39 6q39 4 70 4q35 0 63 -4l29 -6l33 117l426 1050q10 35 49 117l45 94q57 119 108 164v-2q4 2 19 12l24 17q23 14 54 22q14 2 27 2q44 -1 74 -27q31 -28 31 -77q0 -10 -1 -21 q-10 -68 -54 -73q-10 -4 -20 -4q-25 0 -33 18h9q53 0 63 43q4 25 4 45q0 73 -54 73q-7 0 -14 -1q-78 -13 -78 -102q0 -9 1 -19q18 -86 108 -86q104 25 105 125q0 16 -5 35q-16 114 -210 114h-3q-14 -4 -53 -4h-18l-203 -2q-68 0 -92 2l-133 6q0 -8 2 -20t2 -16 q0 -2 -2 -14.5t-2 -22.5h22q127 0 127 -98q0 -64 -16 -148q-47 -256 -162 -549l-90 -238q-33 -86 -80 -204l-49 -113l-365 897q-2 4 -47 121q-14 35 -30 88l-29 86q-19 58 -19 87q0 71 99 71h51q-2 16 -2 37q0 25 2 36l-311 -8q-20 -1 -36 -1q-32 0 -48 3l-158 6 q2 -16 2 -36t-2 -37z" />
<glyph unicode="W" horiz-adv-x="2670" d="M0 1561l23 2h18q90 -10 145 -156q29 -70 47 -131l314 -948q18 -57 43 -164l39 -164l45 6q43 4 59 4l66 -10h26l426 1274l285 -705q8 -16 61 -168l60 -172q12 -45 47 -161l20 -68l41 6q43 4 66 4l74 -10h16l8 41q2 10 29 117q12 41 49 161l49 166q45 152 109 324l116 326 q63 174 117 303q43 104 121 123l25 4q-2 16 -2 39t2 34l-103 -6q-55 -3 -99 -3q-22 0 -42 1l-277 8q2 -12 2 -34q0 -23 -2 -39h23q74 0 104 -17q35 -27 35 -94q0 -74 -35 -231q-16 -80 -49 -230q-4 -18 -69 -250q-63 -221 -162 -481l-346 877q-29 68 -76 219q-12 57 -12 110 q0 57 30 74q8 0 25 8q39 33 88 43h4q14 2 27 2h3q41 0 67 -25q29 -27 29 -74q0 -10 -1 -21q-8 -68 -49 -78q-13 -3 -23 -3q-25 0 -34 21q9 -1 16 -1q47 0 57 42q4 23 4 43q0 73 -55 73q-7 0 -14 -1q-78 -13 -78 -108v-9q18 -88 106 -88q106 27 107 125q0 14 -2 33 q-16 100 -156 112q-14 2 -35 2q-12 0 -30 -2h-35l-203 -6q-12 0 -53 2q-47 2 -82 4l-150 2q2 -12 2 -34q0 -23 -2 -39h21q147 0 147 -125q0 -51 -30 -164l-47 -166l-289 -866l-318 919q-69 200 -69 311q0 79 104 87l31 4q-4 31 -2 39q-4 8 2 34h-35q-27 -4 -70 -6l-194 -2 q-74 0 -109 2l-133 6z" />
<glyph unicode="X" horiz-adv-x="1884" d="M0 1489q0 -100 104 -123q90 0 109 86v9q0 95 -78 110q-7 1 -14 1q-53 0 -53 -71q0 -22 2 -47q11 -41 63 -41h10q-9 -19 -34 -19q-10 0 -23 3q-41 10 -49 76q-2 9 -2 18q0 38 28 74q22 31 68 31q14 0 31 -3q35 0 82 -32q14 -10 18 -11v-2q66 -27 123 -102q20 -27 51 -66 l389 -540l-333 -410q-74 -92 -146 -170l-94 -102q-63 -68 -148 -80h-30v-23q2 -12 2 -16t-2 -16v-23l116 8q53 3 107 3l53 -1l312 -10q-4 18 -5 39q0 20 5 39q-10 -1 -19 -1h-5q-52 0 -81 21q-35 24 -35 76q2 94 117 252l248 342l330 -442q74 -98 75 -164v-5q0 -41 -30 -61 q-27 -18 -71 -19q-8 0 -17 1v-23q2 -12 2 -16t-2 -16v-23l118 8q41 2 156 2q123 0 235 -4l111 -6q-4 31 -2 39q-2 8 2 39q-10 -1 -19 -1q-55 0 -92 21q-80 43 -231 246l-442 580l364 444q70 86 113 125q63 55 151 68l37 4q-2 16 -2 39t2 34l-372 -6q-14 0 -89 4l-67 2 q0 -6 2 -18v-16.5v-16.5q-2 -12 -2 -22l27 -2q86 -8 86 -62q0 -94 -121 -252l-189 -254l-260 373q-29 39 -65 96q-20 25 -17 56q0 43 78 43l21 2q-2 16 -2 37q0 25 2 36l-121 -2q-20 0 -86 -4q-53 -2 -86 -2q-63 0 -84 2l-72 4q-18 2 -49 2q-35 0 -47 -2q-143 -12 -160 -112 q-2 -18 -2 -35z" />
<glyph unicode="Y" horiz-adv-x="1783" d="M0 1475q0 -100 104 -125q90 0 109 86v10q0 97 -78 108q-9 2 -16 2q-51 0 -51 -71q0 -20 2 -47q11 -41 63 -41h10q-9 -20 -35 -20q-10 0 -22 3q-41 10 -49 76q-2 11 -2 21q0 43 27 72q29 31 76 31q8 0 16 -1h12q31 -10 76 -37q6 -6 20 -16v4q55 -49 135 -160l490 -680 v-237q0 -133 -17 -263q-8 -68 -36.5 -90t-100.5 -22h-41v-78l60 6q12 0 106 4h121q166 0 199 -2l100 -8q-6 31 -4 39q-2 8 4 39h-41q-82 0 -118 38t-38 201l-2 445l451 694q66 100 168 109q-2 16 -2 37q0 20 2 36h-33q-29 -4 -57 -6l-127 -2h-40q-97 0 -175 8h-54 q2 -12 2 -34q0 -23 -2 -39l82 -2q53 -10 56 -68v-5q0 -33 -21 -85q-53 -139 -137 -279l-174 -288l-326 471q-25 35 -69 110q-29 49 -29 84q0 61 98 62h31q-2 17 -2 37t2 36l-571 -12q-133 -20 -150 -117q-2 -18 -2 -34z" />
<glyph unicode="Z" horiz-adv-x="1544" d="M0 8l47 2q37 2 103 6l1019 2q31 0 123 -8q14 -2 54 -10q0 14 -2.5 40t-2.5 34q0 37 5 49q0 51 12 125q22 122 22 182q0 19 -2 31v2q-109 127 -190 127q-35 0 -66 -23q-63 -47 -63 -106q0 -37 29.5 -75t70.5 -38q29 0 62 21q47 43 47 86q0 25 -19.5 52.5t-44.5 27.5 q-37 0 -82 -64q-10 -14 -10 -29q0 -25 31 -53q-27 -8 -51 29q-8 16 -8 32q0 29 26 58q35 39 86 45q6 1 11 1q43 0 81 -54q23 -41 31 -97l-4 -34q-20 -131 -129 -191q-98 -53 -244 -61q-121 -8 -250 -8h-315l41 71q10 18 133 201q63 94 180 262l389 539q37 49 168 217 l182 231l-1091 -8h-11q-22 0 -77 4q-51 2 -90 6l-47 6l-2 -47q0 -27 -5 -65l-49 -375l33 -2q10 -2 31 -10l20 129q23 141 156 198q80 35 258 54q86 10 176 10l326 2l-27 -47q-27 -53 -72 -119l-202 -303l-521 -701q-29 -35 -104 -133z" />
<glyph unicode="[" d="M207 -352l8 114l6 228l-14 1347l35 -4l65 -4q35 -2 82 0l98 2h80q-2 -18 -2 -31q0 -12 2 -28h-24q-109 0 -142 -39q-23 -25 -22 -86v-72v-1237q2 -82 49 -106q33 -18 123 -19h16q-2 -18 -2 -30t2 -29h-80l-98 2q-47 0 -82 -2l-65 -4z" />
<glyph unicode="\" horiz-adv-x="606" d="M2 1356h121l606 -1684h-119z" />
<glyph unicode="]" d="M121 -287h24q109 0 142 37q20 25 22 88v72v1237q-2 78 -49 104q-35 20 -123 21h-16q2 18 2 28t-2 31h80l98 -2q47 -2 80 0l67 4l35 4l-4 -45l-6 -69l-2 -129l-2 -99l14 -1347l-35 2l-67 4q-33 2 -80 2l-98 -2h-80q2 18 2 29q0 10 -2 30z" />
<glyph unicode="^" horiz-adv-x="1024" d="M98 993v94l78 62q182 145 268 352l15 35h104l15 -33q80 -205 268 -354l78 -62v-94l-68 27q-145 57 -291 188q-25 23 -53 54l-53 -54q-129 -125 -291 -188z" />
<glyph unicode="_" horiz-adv-x="1024" d="M0 -408h1024v-104h-1024v104z" />
<glyph unicode="`" horiz-adv-x="1099" d="M289 1358l18 14q49 39 90 105l9 16l28 -33l58 -67q41 -49 77 -90l72 -78q37 -39 70 -70l32 -29q-25 -18 -36 -45l-25 23q-37 31 -92 65l-98 64z" />
<glyph unicode="a" horiz-adv-x="1361" d="M0 0l74 6q27 3 76 3q24 0 53 -1l110 -2q10 0 29 -2h27l37 -4q-4 25 -3 31q-2 6 3 30h-17q-104 0 -104 86q0 33 16 89l29 88q20 74 43 116l43 115l205 6l12 76q-98 0 -156 4l-31 2l175 479l167 -479q-39 -4 -49 -4q-37 -2 -106 -2l-12 -76q33 0 141 -4l53 -2l25 -61 q18 -47 53 -152l108 -342l29 4q14 2 49 4h60h49q31 -2 41 -2l67 -6q0 8 -2 18v13.5v13.5q2 10 2 16h-14q-68 0 -111 68q-27 39 -63 121q-76 168 -135 344l-201 598q-14 41 -20 84l-2 35l-72 -4q-35 -2 -78 -2h-22q-31 2 -50 2q-143 -8 -155 -95q-2 -14 -2 -26q0 -78 82 -101 q74 0 88 72v11q0 57 -39 75q-18 8 -23 8q-12 2 -22 0q-33 -6 -33 -59q0 -14 2 -33q9 -34 47 -34q6 0 12 1q-10 -25 -47 -16q-31 10 -39 64q-1 7 -1 15q0 33 22 60q14 16 37 21q20 6 47 0q35 -8 76 -41q-2 -20 -17 -45q-10 -35 -26 -84q-12 -37 -45 -121l-359 -821 q-49 -97 -125 -97h-8q2 -14 2 -30t-2 -31z" />
<glyph unicode="b" horiz-adv-x="1124" d="M0 1174q0 -78 82 -97q70 0 84 68v7q0 52 -29 73q-10 10 -33 12q-14 4 -30 -4q-23 -11 -23 -49q0 -16 4 -37q6 -33 51 -33h5q-8 -20 -43 -12q-33 8 -39 59q-1 7 -1 14q0 31 21 58q2 8 12 12q16 12 42 12q12 0 26 -2q43 -12 76 -38l8 -750v-111q0 -156 -22.5 -213 t-104.5 -63q-8 -2 -25 -2v-60l91 5q79 3 79 4h-2q27 0 88 -7l164 -16q41 -4 92 -4q63 0 127 12q158 31 258 125q111 104 111 260q0 231 -242 303l-55 17l-31 4l-61 24l-21 -22h-297v-72h123h64q35 -2 43 -2q141 -16 225 -123q47 -59 64 -131q8 -33 8 -79q0 -113 -69 -177 q-67 -63 -178 -63h-7q-129 0 -240 78l-20 14l-4 45q-6 20 -6 152v780q0 33 4 51l6 29q16 2 49 6q41 6 88 6q258 0 258 -256q0 -90 -45 -172q-25 -41 -45 -64l61 -24q27 25 41 37q117 113 154 223q16 49 16 94q-2 236 -325 236q-68 -1 -230 -17q-6 0 -100 -10l-96 4l-47 2 q-63 -2 -93 -16q-61 -29 -61 -100z" />
<glyph unicode="c" horiz-adv-x="1140" d="M0 649q0 -328 209 -512q156 -137 381 -137q248 0 444 158l51 43l-20 24l-14 27l-27 -16q-137 -96 -313 -97q-260 0 -400 170q-127 156 -129 420v7q0 202 107 354q102 145 317 145q98 0 193 -33q109 -41 153 -112q2 0 2 -5h-2q4 0 4 -4q25 -33 37 -67q2 -14 2 -26 q0 -24 -8 -40q-2 -4 -16 -18q-34 -21 -66 -21h-6q-61 8 -61 60q0 18 14 26v-9q0 -41 33 -50q18 -2 33 -2q58 0 58 43q0 6 -1 12q-9 60 -79 61q-6 0 -13 -1q-68 -12 -68 -84q17 -80 97 -80q12 0 26 2q78 10 94 149v17q0 10 2 32q2 59 10 150l15 76q-41 -25 -76 -25 q-10 0 -82 6l-98 11q-80 8 -160 8q-287 0 -464 -183.5t-179 -472.5v-6z" />
<glyph unicode="d" horiz-adv-x="1398" d="M0 1174q0 -80 82 -99q70 0 84 68v10q0 65 -47 78q-4 2 -15 4q-16 4 -24 -2q-29 -8 -29 -53q0 -14 4 -35q8 -33 51 -33h5q-8 -20 -43 -12q-33 8 -39 59q-1 7 -1 14q0 31 21 58q12 18 30.5 22t49.5 0q43 -12 76 -39q14 -37 14 -92v-2q6 -43 12 -164v-100v-389 q0 -72 -2 -113l-4 -84q-4 -88 -22 -127q-29 -61 -103 -63q-8 -2 -22 -2q2 -12 2 -29q0 -18 -2 -31l133 5q12 0 41 2q23 2 35 2q29 -4 114.5 -15.5t120.5 -11.5h60q336 0 543.5 201.5t207.5 533.5q0 481 -442 559q-95 17 -191 17q-18 0 -127 -4l2 -70q207 0 347 -92 q227 -150 229 -490v-10q0 -191 -76 -334q-109 -211 -405 -211q-74 0 -105 9q-59 4 -139 36l-33 19l-12 186q-3 26 -3 68q0 21 1 45l4 577v62q2 37 2 47l8 74l60 6q25 4 122 8l-2 70l-235 -19q-63 -4 -88 -4l-60 2q-2 2 -8 2h-18q-147 0 -162 -88q-2 -14 -2 -26z" />
<glyph unicode="e" horiz-adv-x="1050" d="M0 6l33 2q70 4 78 4l768 -12q59 0 69 53l47 144q6 8 6 20q0 166 -90 180q-14 2 -28 2q-78 0 -99 -82q0 -72 70 -86h9q75 0 85 62q1 6 1 11q0 42 -58 42q-16 0 -35 -2q-33 -7 -33 -48v-9q-16 6 -16 26q0 49 63 58q9 1 17 1q30 0 53 -18q29 -22 29 -63q0 -2 -2 -10v-13 q-14 -45 -35 -69l-6 -6h2q-43 -45 -88 -58q-35 -16 -109 -29q-128 -20 -260 -20h-35l-114 2l-7 72q-8 96 -8 346v127l41 2q43 2 127 6l254 4q66 0 90 -4l33 -2l20 39q6 12 27 47l-61 -2q-37 -2 -127 -4l-148 -2q-35 -1 -61 -1q-51 0 -64 3q-29 0 -80 6l-51 6l2 248 q0 61 4 160l9 84l94 4h31q66 0 165 -6q262 -20 262 -164v-66q10 2 25 2q16 0 27 -2v27q0 10 4 53l12 133q2 18 12 78l4 25l-26 2q-31 0 -98 2l-236 -8q-119 -5 -169 -6q-14 0 -23 1h-246q-45 0 -113 7h-47q2 -12 2 -29q0 -16 -2 -31h27q66 -4 100 -71q23 -45 23 -127l6 -584 q1 -20 1 -39q0 -39 -3 -76l-4 -84q-4 -90 -23 -131q-29 -65 -100 -65h-2q-6 -2 -25 -2q2 -12 2 -29q0 -18 -2 -31z" />
<glyph unicode="f" horiz-adv-x="921" d="M0 0l231 8l234 -8q-2 14 -2 31q0 16 2 30h-21q-100 0 -120 89q-12 43 -15 172l-2 235l172 6q66 2 129 12q25 2 117 19q39 4 96 18l23 9l6 28q0 8 10 35l-119 -6q-52 -3 -88 -3q-18 0 -32 1l-314 14l4 334q2 74 6 139l5 54l53 6h41q31 2 49 2q227 0 289 -84q20 -25 30 -78 q4 -23 19 -62q0 -8 4 -22v-6q0 -41 -25 -65q-23 -22 -58 -22q-8 0 -17 1q-51 8 -60 39q-10 37 12 45q-2 -47 33 -58q20 -2 37 -2q58 0 58 42q0 6 -1 12q-10 63 -89 63h-7q-68 -16 -67 -88q18 -82 98 -82q102 0 117 121q0 16 2 25v18q0 14 6 74q4 41 12 102l21 113l-52 -8 q-12 0 -48 -2.5t-58 -2.5l-721 5q2 -12 2 -29q0 -16 -2 -29h14q127 0 133 -112l9 -175q2 -43 2 -112v-387q0 -70 -2 -113l-4 -88q-4 -86 -23 -127q-33 -70 -104 -70h-25q2 -14 2 -30t-2 -31z" />
<glyph unicode="g" horiz-adv-x="1472" d="M0 645q0 -109 35 -227q125 -416 684 -418q244 0 426 61l18 7l-4 10q-12 14 -17 39.5t-5 56.5v66l2 202q0 84 59 119q2 0 4 2q33 27 70 35q4 2 16 2q7 1 14 1q33 0 52 -25q21 -25 21 -58q0 -6 -1 -12q-6 -51 -39 -62q-35 -10 -45 15q6 -1 12 -1q36 0 46 34q2 18 2 34 q0 55 -43 55q-6 0 -13 -1l-5 -1t-9 -4q-45 -15 -45 -80v-6q16 -69 84 -69h2q82 23 82 98q0 96 -113 111q-23 6 -55 4l-199 -6q-29 0 -92 2l-135 6q2 -12 2 -29q0 -18 -2 -31l90 -6q84 -8 88 -116q2 -47 2 -76v-137q0 -86 -18 -123l-10 -21q-18 -4 -70 -14q-35 -4 -109 -4 q-272 0 -436 178t-164 453q0 231 119 374q129 152 358 152q158 0 273 -53q150 -70 158 -209l2 -31q12 2 26 2t27 -2v37q0 174 18 283l8 49l-18 -17q-23 -20 -63 -20l-277 31q-49 6 -143 6q-96 0 -164 -11q-242 -37 -379 -227q-125 -176 -127 -428z" />
<glyph unicode="h" horiz-adv-x="1511" d="M0 0l109 6q35 2 112 2q78 0 121 -2l127 -6v31v30h-29q-18 0 -53 13q-70 20 -76 155v109v319l27 7l598 4q14 0 47 -4l27 -7v-196q0 -109 -4 -170l-7 -90q-6 -74 -30 -103q-29 -37 -95 -37h-24q0 -6 2 -16v-13v-14q-2 -10 -2 -18l27 2q14 2 49 4q20 0 69 2h82q117 0 148 -2 l94 -6q-4 25 -2 33q-2 6 2 28h-16q-135 0 -136 199l-4 705v12q0 216 68 256q4 2 6 4q37 31 70 37q4 2 10 2q8 1 16 1q37 0 60 -24q21 -32 21 -63q0 -6 -1 -12q-6 -53 -43 -64q-35 -8 -45 16q9 -1 16 -1q38 0 43 34q2 20 2 35q0 58 -43 58q-6 0 -12 -1q-60 -11 -60 -79 q0 -7 1 -15q12 -71 82 -71h2q84 22 84 102q0 12 -2 25q-10 78 -121 90q-37 4 -60 2h-4l-47 -2q-63 -2 -100 -2l-256 6q0 -6 2 -17v-11v-13q-2 -10 -2 -17l41 -4q76 -8 96 -57q18 -31 21 -115v-100l2 -227l-27 -5q-12 -4 -51 -4l-621 9v282q2 70 11 125q14 78 79 86l68 10v31 v27l-117 -4q-59 -2 -112 -2q-49 0 -113 2l-127 4q2 -10 2 -27q0 -19 -2 -31h16q78 0 111 -67q16 -33 25 -133q4 -47 4 -88v-617q0 -158 -27 -217q-31 -70 -102 -70h-27q2 -14 2 -30q0 -18 -2 -31z" />
<glyph unicode="i" horiz-adv-x="624" d="M0 1192q0 -78 84 -100q72 0 86 71v11q0 61 -43 79q-12 4 -18 4q-6 1 -11 1q-44 0 -45 -58q0 -14 2 -35q8 -33 46 -33q7 0 14 1q-10 -25 -45 -15q-33 8 -41 62q-1 6 -1 12q0 34 21 63q19 24 60 24q8 0 18 -1q2 0 6 -2q35 -8 80 -39t55 -102q4 -27 11 -82q4 -70 4 -88v-619 q0 -20 -4 -86q-12 -195 -127 -199h-25v-61l86 6q29 2 160 2q76 0 149 -4l74 -4q-4 25 -2 31q-2 6 2 30h-29q-74 4 -102 70q-23 47 -25 131l-2 86q-2 84 -2 115v387q0 29 2 115l2 88q2 84 25 129q29 66 102 69q8 2 29 2q-4 23 -2 31q-2 6 2 27h-23q-54 -7 -136 -7 q-33 0 -70 1l-160 4v2h-53q-18 0 -27 -2q-127 -10 -127 -117z" />
<glyph unicode="j" horiz-adv-x="567" d="M0 84q10 -25 25 -84l79 33q59 25 138 84q18 14 51 41l22 18l4 920q0 39 7 67q8 61 43 82q4 2 4 4q29 20 59 31h12q35 4 56 -20q17 -18 17 -44q0 -8 -1 -16q-6 -45 -31 -49q-29 -10 -39 10q41 -4 50 27q2 16 2 29q0 48 -34 48q-5 0 -11 -1h-9q0 -2 -6 -2q-37 -15 -37 -70 v-6q12 -55 72 -56q68 14 68 79q0 11 -2 24q-11 76 -136 76l-149 -4q-14 -1 -36 -1t-50 1l-107 6q2 -10 2 -25q0 -14 -2 -24l27 -2q98 -6 100 -162l2 -78v-88v-531q-2 -117 -10 -184q-8 -82 -36.5 -104.5t-114.5 -26.5z" />
<glyph unicode="k" horiz-adv-x="1411" d="M0 0l221 8q25 1 51 1l101 -3l96 -6q-2 14 -2 31q0 16 2 30h-8q-82 0 -119 64q-25 41 -29 137l-2 86q-2 84 -2 115v119l94 75l500 -657l21 4l278 -4q127 10 139 92q2 14 2 29q0 78 -81 98q-72 0 -88 -69v-10q0 -75 61 -87q6 -1 11 -1q44 0 44 61q0 14 -2 34q-9 33 -50 33 h-9q8 16 28 17q49 0 58 -64q2 -11 2 -20q-1 -37 -25 -59q-24 -21 -60 -21q-11 0 -22 2q-4 2 -10 4q-29 10 -55 31q-4 4 -10 4q-59 16 -115 73q-20 20 -68 76l-415 529l489 415q84 72 148 82l28 4q-2 12 -2 31q0 16 2 27h-450q4 -20 4 -27q0 -6 -4 -31l26 -2q84 -8 84 -45 q-2 -53 -164.5 -214t-337.5 -292l-51 -36l2 405q2 82 25.5 127t105.5 53l27 4q-2 12 -2 31q0 16 2 27l-225 -6q-28 -1 -56 -1t-55 1q-33 2 -84 4l-49 2q2 -13 2 -29t-2 -29q18 0 25 -2q76 -4 104 -67q18 -41 23 -131l4 -88q2 -43 2 -115v-467q0 -84 -15 -195 q-16 -123 -118 -127h-25q2 -14 2 -30t-2 -31z" />
<glyph unicode="l" horiz-adv-x="1062" d="M0 1190q0 -78 82 -98q72 0 88 69q2 82 -61 94q-6 1 -11 1q-44 0 -45 -58q0 -14 2 -35q9 -34 47 -34q6 0 13 1q-10 -25 -47 -14q-31 8 -39 62q-1 8 -1 15q0 32 21 60q19 24 60 24q8 0 18 -1q2 0 6 -2q37 -8 72 -37q2 -2 4 -2q61 -33 70 -182l4 -88v-113v-387v-115l-4 -86 q-6 -84 -27 -129q-29 -67 -98 -67h-2q-8 -2 -25 -2v-60l569 8q22 1 41 1q38 0 62 -3l153 -12l60 358q-18 0 -21 2l-33 5l-8 -43q-27 -141 -116 -193q-72 -43 -230 -43q-59 0 -104 6q-25 4 -54 10q-4 55 -8 101q-4 63 -4 151v611q0 16 4 88q4 57 11 82q14 109 108 114l35 2 q-4 27 -2 33q-2 7 2 27l-244 -6q-14 -1 -32 -1q-36 0 -91 3l-53 2h-18q-139 0 -152 -92q-2 -12 -2 -27z" />
<glyph unicode="m" horiz-adv-x="1800" d="M0 0l27 2q16 2 53 4l323 -6q-4 25 -2 31q-2 8 2 30h-20q-137 0 -135 168l10 863l487 -1086q14 2 31 2q16 0 29 -2l270 582q66 143 234 510l12 -193v-94v-659q-8 -90 -100 -91h-27q2 -14 2 -30t-2 -31l231 8q20 1 39 1q38 0 72 -3l49 -4q25 -2 47 -2q-2 14 -2 33 q0 16 2 28h-28q-111 0 -119 111l-6 82q0 20 -4 129l-13 520q-2 94 -2 103l2 77q2 92 15 119q6 14 26 27q4 4 13 8q23 20 65 35q12 2 35 2q33 -4 49 -25q22 -32 22 -65q0 -5 -1 -10q-8 -53 -39 -62q-37 -8 -48 14h10q42 0 50 33q4 20 4 37q0 57 -45 57h-12q-62 -13 -62 -83 v-13q14 -70 86 -70q84 20 84 99q0 92 -96 114q-16 2 -53 7q-35 0 -58 -2h-131q-16 0 -55 6h-27l-20 -51q-12 -35 -45 -111l-142 -340q-63 -160 -206 -471l-58 -109l-334 754l-127 328l-71 -4l-236 4q2 -11 2 -27q0 -18 -2 -31h21q88 0 94 -86l-12 -735q0 -31 -11 -133 l-20 -139q-25 -98 -104 -99h-23q2 -14 2 -30t-2 -31z" />
<glyph unicode="n" horiz-adv-x="1593" d="M0 0l379 4l24 -4q-2 14 -2 31q0 16 2 30h-12q-82 0 -112 89q-18 53 -25 147q-8 115 -8 309v451l86 -113q47 -63 170 -209q328 -393 555 -631l94 -98q14 2 37 2q18 0 35 -2l-2 137v95l18 653q4 127 10 180q16 129 58 162q8 4 10 8q31 20 59 31q2 2 8 2q13 3 25 3 q32 -1 55 -21q25 -22 25 -58q0 -9 -2 -20q-6 -53 -41 -64q-35 -8 -43 16q6 -1 12 -1q36 0 45 34q4 20 4 35q0 58 -43 58q-6 0 -12 -1q-64 -11 -64 -80q0 -7 1 -14q16 -71 86 -71h2q84 23 84 100q0 111 -138 119q-39 2 -63 0h-31q-27 0 -62.5 -2t-43.5 -2l-160 6h-45 q2 -10 2 -27q0 -18 -2 -31h20q92 0 113 -84q16 -57 20 -153l5 -121q2 -61 2 -190v-420q-29 23 -62 57q-223 223 -407 444q-229 276 -347 494l-16 31l-70 -4q-47 -2 -86 -2l-120 2l-27 4q2 -10 2 -27q0 -18 -2 -31h12q63 0 115 -61q10 -14 31 -45l-6 -698q-6 -166 -19 -226 q-29 -162 -106 -162h-27q2 -14 2 -30t-2 -31z" />
<glyph unicode="o" horiz-adv-x="1329" d="M0 639q0 -164 70 -309q74 -154 204 -238q147 -92 336 -92q354 0 545 289q111 170 111 391q0 281 -164 455t-443 176l-51 -76q221 0 350 -201q59 -94 91 -198q34 -125 34 -234v-6q0 -197 -90 -350q-101 -168 -298 -168h-5q-233 0 -385 211q-121 170 -123 430v9 q0 178 78 310q119 195 348 197l51 76q-287 0 -473 -186.5t-186 -485.5z" />
<glyph unicode="p" horiz-adv-x="1028" d="M0 0l104 6q47 3 87 3q20 0 38 -1l232 -8q-2 14 -2 31q0 16 2 30h-27q-80 0 -102 54q-16 39 -21 121l-4 94q-2 47 -2 125v374q0 61 2 183l2 98l10 113q23 4 48 6q47 6 90 6q154 0 246 -94t94 -250q0 -61 -25 -131q-68 -184 -289 -185h-8q-45 8 -67 23q-44 29 -44 65 q0 5 1 9q6 39 39 70q20 19 42 19q13 0 27 -7q29 -18 23 -41q-22 25 -42 25q-12 0 -24 -9q-49 -35 -49 -63q0 -20 21.5 -36t41.5 -16q33 0 68 37q16 27 16 49q0 33 -28 60q-31 20 -62 20q-47 0 -84 -51q-18 -25 -18 -53q0 -61 84 -139q4 -4 14 -13l51 -10q203 0 344 125 q150 129 150 328q0 174 -121 264q-102 76 -287 80q-29 -2 -84 -4q-10 0 -43 -4q-39 -2 -67 -5l-264 -12l-113 4q2 -10 2 -28q0 -16 -2 -29h10q66 0 95.5 -23.5t35.5 -87.5l9 -75q4 -16 4 -97l2 -495q0 -63 -2 -113l-4 -86q-4 -86 -23 -127q-31 -68 -102 -68h-25q2 -14 2 -30 t-2 -31z" />
<glyph unicode="q" horiz-adv-x="1521" d="M0 762q0 -133 55 -254q61 -127 168 -195q117 -74 275 -75h20q31 0 68 4l-21 57h-12q-174 0 -297 166q-104 143 -106 362v9q0 144 63 251q96 160 287 160q135 0 233 -98q84 -86 125 -227q31 -104 31 -197q0 -168 -76 -289q-86 -137 -239 -137h-9l21 -57l41 6l106 -84 q150 -117 334 -152q72 -12 139 -12q35 0 88.5 4t75.5 19q8 8 25 22q53 55 53 98q0 25 -14 43q-33 43 -70 43q-20 0 -47 -16q-23 -23 -23 -47q0 -20 13 -41q27 -31 55 -31q16 0 33.5 12.5t17.5 28.5q0 25 -39 53q-29 16 -53 -14q-6 20 18 33q25 14 58 -12q25 -18 30 -52v-6 q0 -28 -34 -55q-31 -14 -60 -19h-16q-111 0 -297 93l-113 57q-68 33 -96 49l-55 31l4 4q66 39 110 80q166 150 166 416q0 233 -136 374.5t-370 143.5q-170 0 -297.5 -87t-193.5 -245q-39 -102 -39 -217z" />
<glyph unicode="r" horiz-adv-x="1329" d="M0 0l225 8q20 1 41 1q42 0 90 -3l105 -6q-2 14 -2 31q0 16 2 30h-19q-78 0 -108 43q-20 31 -23 119l-6 346h152l-6 72l-125 6l-21 6v217q0 53 4 140l10 217l48 4q47 4 77 4q231 0 299 -176q27 -70 27 -137q0 -227 -209 -271q-51 -10 -110 -10l6 -72l41 -51 q51 -63 98 -133l123 -180q51 -76 92 -144l37 -61l18 4q18 4 54 4h108l37 -4h22q20 -4 43 0q135 6 136 117q0 78 -82 98q-72 0 -84 -69q-1 -7 -1 -13q0 -70 60 -80q6 -1 11 -1q44 0 44 59q0 14 -2 32q-9 34 -47 34q-6 0 -12 -1q12 23 45 15q35 -10 41 -62q1 -5 1 -11 q0 -34 -22 -62q-18 -25 -54 -24q-13 0 -29 3q-4 0 -16.5 4t-31.5 12q-10 4 -26 17q-27 8 -53 32q-41 37 -64 66q-18 18 -51 66l-258 366l31 16q286 153 286 394q0 196 -176 264q-76 31 -336 35l-196 -21q-59 -6 -92 -6h-15l-137 6q2 -10 2 -26q0 -18 -2 -31h14 q115 0 129 -107q6 -45 7 -82l6 -589q0 -35 -2 -113q-2 -53 -4 -86l-7 -84q-8 -111 -118 -111h-25q2 -14 2 -30t-2 -31z" />
<glyph unicode="s" horiz-adv-x="944" d="M0 27l14 6q4 2 33 6q16 -2 47 -4l96 -15q43 -6 129 -16q61 -4 105 -4q203 2 330 90q145 102 145 297q0 211 -221 299q-84 31 -166 59q-100 37 -160 76q-139 89 -139 217q0 35 10 72q45 139 240 141h8q115 0 195 -53q94 -63 98 -178v-33q14 2 33 2q18 0 32 -2l-6 31 q-8 37 -6 57l10 148l17 88l-25 -8q-31 -10 -74 -11q-47 0 -90 4l-86 9q-66 6 -114 6q-178 0 -287 -74q-123 -85 -123 -253v-5q2 -201 203 -299q37 -20 102 -47l115 -45q39 -14 106 -47q160 -82 160 -238q-2 -131 -90 -197q-61 -43 -174 -45h-8q-127 1 -233 59 q-110 60 -136 171q0 6 -4 18v6h-2q-2 6 -7 21.5t-9 36.5q-6 10 -7 16q-2 11 -2 21q1 33 21 56q21 24 58 24q9 0 18 -1q51 -6 59 -38q8 -35 -12 -43q2 49 -35 55q-20 4 -35 4q-54 0 -54 -41q0 -7 1 -14q10 -60 85 -60h7q68 14 68 84q-18 82 -99 82q-12 0 -26 -2 q-78 -12 -86 -131q-2 -35 0 -55v-13v-14l-9 -190q-2 -25 -10 -60z" />
<glyph unicode="t" horiz-adv-x="1157" d="M0 991q12 2 27 2q14 0 24 -2l4 29q0 12 11 45q27 78 88 103.5t137 25.5l168 4l8 -139q0 -39 2 -107q2 -78 2 -106v-387q0 -51 -4 -133l-4 -80q-8 -184 -113 -185h-37q2 -14 2 -30t-2 -31l369 6h41l20 -2l37 -4q-2 14 -2 31q0 16 2 30h-16q-133 0 -135 197l-6 580 q0 61 2 114l12 246h178q20 0 84 -4q111 -6 109 -119v-10q-4 -47 -27 -82q-30 -45 -71 -45h-3q-39 8 -67 39q-22 24 -22 46q0 13 7 26q18 33 41 22q-25 -21 -25 -40q0 -12 9 -23q37 -51 65 -52q20 0 35 21.5t15 42.5q0 35 -37 70q-25 16 -49 16q-31 0 -60 -29 q-20 -33 -20 -61q0 -47 51 -86q25 -18 53 -19q61 0 137 82l6.5 6.5t4.5 40.5v2q0 -10 2 23q4 59 24 156q8 37 17 63l8 27l-49 -6q-37 -4 -103 -5l-860 5q-16 0 -45 6l-6 -101q-2 -18 -8 -69z" />
<glyph unicode="u" horiz-adv-x="1523" d="M0 1251h20q121 0 134 -110q2 -20 2 -74q0 -37 -2 -117l-9 -319q-2 -113 -2 -146q0 -39 2 -106q18 -236 158 -322q94 -57 219 -57q143 0 307 92l195 111l4 -152q0 -4 4 -33q25 0 29 2l41 3l196 -3h15q137 6 137 117q0 78 -82 99q-72 0 -84 -70q-1 -7 -1 -14q0 -71 60 -80 q6 -1 11 -1q44 0 45 58q0 16 -4 35q-5 34 -45 34q-6 0 -13 -1q8 25 45 14q35 -10 41 -61q1 -5 1 -10q0 -32 -24 -62q-20 -26 -55 -26q-12 0 -26 3q-4 2 -8 2q-35 14 -58 31q-4 2 -8 6q-29 16 -41 66q-16 63 -16 139v610q0 55 10 256q2 63 8 95l8 51l-26 -2q-37 -6 -141 -6 h-166q2 -10 2 -23q0 -16 -2 -29q35 0 34 0q59 -2 86 -47q35 -65 35 -279v-24l-6 -539q0 -27 -16 -83l-33 -29q-123 -106 -344 -109h-4q-320 0 -334 308l-6 135q-1 28 -1 59t1 64l14 354q2 23 8 110q4 37 11 95l10 45l-31 -2q-27 -6 -59 -6h-246q2 -10 2 -23q0 -16 -2 -29z " />
<glyph unicode="v" horiz-adv-x="1560" d="M0 1253h12q47 0 78 -36q14 -18 43 -78q20 -41 60 -127l350 -881q12 -33 32 -100l9 -31l32 4q31 4 56 4q27 0 51 -4l22 -4l27 94l340 840q8 27 41 94l35 74q45 96 88 131v-2q2 2 14 10l19 14q18 12 43 19q11 2 22 2q36 0 60 -22t24 -58q0 -10 -2 -20q-8 -55 -41 -62 q-10 -2 -18 -2q-18 0 -27 16h9q41 0 51 33q2 20 2 35q0 60 -44 60q-6 0 -12 -1q-62 -11 -62 -81q0 -7 1 -15q16 -69 86 -69h2q82 20 82 100q0 12 -2 27q-14 92 -170 92q-12 -2 -43 -2h-15l-163 -2q-53 0 -72 2l-107 4v-17q2 -8 2 -12q0 -2 -2 -12v-17h17q102 0 102 -79 q0 -48 -12 -119q-39 -205 -129 -439l-74 -190q-27 -70 -63 -164l-41 -90l-291 719q0 2 -37 96q-12 27 -25 70l-22 69q-16 49 -16 72q6 55 79 55h41q-2 12 -2 29q0 18 2 29l-249 -6q-15 -1 -27 -1q-25 0 -39 3l-127 4q2 -13 2 -29t-2 -29z" />
<glyph unicode="w" horiz-adv-x="2136" d="M0 1249l18 2h15q72 -10 117 -125q23 -57 36 -104l250 -760q16 -45 37 -131l31 -131l35 4q35 4 47 4l53 -8h20l342 1020l228 -565q6 -12 49 -136l47 -137q10 -35 37 -129l18 -53l33 4q33 4 51 4l60 -8h14l6 33q2 8 23 94q10 33 39 129l41 133q35 121 84 258l94 260 q51 139 94 244q35 84 96 98l21 4q-4 12 -4 31q0 16 4 27l-82 -4q-45 -3 -81 -3q-18 0 -34 1l-221 6q2 -10 2 -27q0 -18 -2 -31h18q59 0 85 -17t26 -73q0 -59 -27 -186q-12 -63 -39 -182q-68 -272 -186 -584l-276 700q-23 53 -60 174q-10 47 -10 91q0 45 25 57q6 0 18 6 q33 27 72 37h4q11 2 20 2q32 0 56 -22q23 -22 24 -56q0 -9 -2 -20q-6 -53 -39 -62q-37 -10 -45 15q6 -1 12 -1q36 0 45 33q4 18 4 33q0 60 -43 60q-6 0 -12 -1q-63 -11 -63 -87v-7q16 -71 84 -71h2q86 23 86 100q0 106 -127 117q-10 2 -29 2h-24q-18 -2 -27 -2l-162 -4 q-10 0 -43 2q-39 2 -65 2l-121 2q2 -10 2 -27q0 -18 -2 -31h16q119 0 119 -100q0 -43 -25 -131l-37 -133l-231 -694l-254 735q-55 162 -55 252q0 61 82 67l24 4q-4 23 -2 31q-2 6 2 27h-26q-23 -4 -56 -4l-155 -2q-59 0 -88 2l-107 4z" />
<glyph unicode="x" horiz-adv-x="1507" d="M0 1192q0 -80 84 -100q72 0 86 69v9q0 75 -61 87q-6 1 -11 1q-44 0 -45 -60q0 -14 2 -35q9 -33 51 -33h9q-8 -23 -45 -12q-35 7 -41 60q-1 7 -1 14q0 30 21 61q20 25 59 25q10 0 21 -2q29 0 68 -27q10 -8 14 -10v-2q51 -20 96 -80q18 -23 43 -53l309 -432l-266 -328 q-59 -74 -117 -135l-73 -82q-51 -55 -119 -66h-27q0 -6 2 -16t2 -14q0 -2 -2 -12.5t-2 -18.5l95 6q42 3 85 3q22 0 44 -1l247 -8q-2 14 -2 31q0 16 2 30h-10h-5q-44 0 -67 17q-28 20 -28 61q2 76 94 203l197 272l264 -354q59 -80 61 -131q0 -35 -24 -53q-21 -15 -58 -15h-5 h-9q0 -6 2 -16v-13v-14q-2 -10 -2 -18l96 6q33 2 125 2q98 0 187 -4l90 -4q-4 25 -2 31q-2 6 2 30h-9q-47 0 -81 19q-61 35 -185 194l-354 465l291 355q57 70 92 100q49 45 121 55l28 4q-2 12 -2 31q0 16 2 27l-297 -4q-12 0 -71 2l-53 2q0 -6 2 -15v-13v-13q-2 -10 -2 -17 l20 -2q70 -8 70 -51q0 -74 -97 -201l-151 -202l-209 297q-20 33 -51 77q-16 18 -13 43q0 37 62 37l16 2q-2 12 -2 29q0 18 2 29l-96 -2q-16 0 -70 -2q-43 -2 -67 -2q-51 0 -68 2l-57 2q-14 2 -41 2t-37 -2q-129 -10 -129 -117z" />
<glyph unicode="y" horiz-adv-x="1427" d="M0 1180q0 -82 84 -101q72 0 86 70v9q0 76 -61 85q-7 1 -13 1q-42 0 -43 -58q0 -14 2 -35q9 -33 51 -33h9q-8 -23 -45 -14q-33 8 -41 61q-1 9 -1 17q0 35 22 58q23 24 62 24h11h10q25 -8 62 -31q4 -4 16 -12v2q43 -37 106 -127l392 -545v-189q0 -109 -13 -210 q-6 -53 -29.5 -72t-78.5 -19h-35v-61l49 4q10 0 84 4h96q133 0 160 -2l80 -6q-4 25 -2 31q-2 6 2 30h-31q-68 0 -96.5 31t-28.5 162l-2 356l359 555q53 80 135 88q-2 12 -2 29q0 16 2 29h-27q-23 -4 -45 -4l-102 -2h-38q-73 0 -132 6h-45q2 -10 2 -27q0 -18 -2 -31l67 -2 q41 -10 43 -55v-6q0 -26 -16 -66q-43 -113 -111 -223l-139 -231l-260 377q-18 27 -55 90q-23 37 -23 65q0 51 78 51h25q-3 13 -3 29t3 29l-457 -11q-121 -18 -121 -120z" />
<glyph unicode="z" horiz-adv-x="1234" d="M0 6l37 2q31 2 82 4l817 2q25 0 98 -6q12 -2 41 -8v33q-2 20 -2 26q0 29 2 39q0 41 10 101q18 101 18 149q0 12 -1 21v2q-86 100 -152 100q-27 0 -51 -18q-51 -37 -51 -84q0 -31 23.5 -60.5t54.5 -29.5q25 0 51 16q37 35 37 67q0 23 -15.5 44.5t-35.5 21.5q-29 0 -64 -51 q-9 -12 -9 -24q0 -20 25 -42q-23 -6 -41 23q-7 14 -7 27q0 23 20 43q31 34 69 38q4 1 9 1q36 0 65 -44q18 -33 25 -75l-4 -29q-14 -104 -103 -154q-78 -41 -194 -49q-96 -6 -199 -6h-254l33 57q8 14 106 162q51 76 146 211l311 430q29 39 133 172l148 187l-875 -7 q-7 -1 -19 -1q-38 0 -124 10l-37 4l-2 -37q0 -23 -4 -53l-39 -299l26 -2q8 -2 25 -9l16 103q18 113 125 160q115 49 348 51l261 2l-21 -39q-23 -43 -59 -96l-162 -240l-416 -561q-23 -29 -84 -107z" />
<glyph unicode="{" horiz-adv-x="909" d="M168 502v51l29 12q76 37 131 94q66 70 65 152q2 61 -23.5 185t-25.5 192q0 276 354 348l70 14v-51q-20 -6 -43 -14q-170 -68 -170 -307q-2 -53 10.5 -155.5t12.5 -154.5q0 -96 -66 -174q-45 -51 -152 -114l-86 -54l86 -51q215 -125 218 -285q2 -51 -10.5 -152t-12.5 -153 q0 -231 170 -303q14 -4 43 -14v-51l-70 14q-352 72 -354 344q0 63 24.5 185t24.5 184q2 117 -137 211q-35 23 -59 32z" />
<glyph unicode="|" horiz-adv-x="1024" d="M459 -512v2048h104v-2048h-104z" />
<glyph unicode="}" horiz-adv-x="909" d="M141 -432q18 6 41 14q174 72 174 303q0 51 -12 152.5t-12 150.5q-2 160 217 287l86 51l-86 54q-217 129 -217 290q0 51 12 153.5t12 156.5q0 236 -174 305q-14 6 -41 14v51l70 -14q354 -72 354 -346q2 -66 -24.5 -189.5t-26.5 -187.5q0 -156 199 -248l28 -12v-51l-28 -15 q-23 -8 -60 -32q-137 -92 -139 -211q0 -63 25.5 -185t25.5 -186q0 -270 -354 -342l-70 -14v51z" />
<glyph unicode="~" horiz-adv-x="2048" d="M387 455l49 67q35 53 84 92q98 80 217 80q92 2 221 -37l136 -39q94 -27 143 -38q86 -18 147 -21q119 0 203 90l37 41l35 -35q-18 -41 -39 -77q-100 -168 -287 -168q-76 0 -166 22l-159 39l-146 41q-115 33 -182 33q-113 2 -227 -96l-33 -27z" />
<glyph unicode="&#xad;" d="M68 436l20 27q20 27 33 45l33 49l10 18q29 -4 49 -4q31 -4 137 -4q137 0 197 4q18 0 67 4l-16 -20l-35 -47q-6 -10 -28 -49l-13 -23l-49 4q-80 6 -225 4l-117 -2z" />
<glyph unicode="&#x2000;" horiz-adv-x="819" />
<glyph unicode="&#x2001;" horiz-adv-x="1638" />
<glyph unicode="&#x2002;" horiz-adv-x="819" />
<glyph unicode="&#x2003;" horiz-adv-x="1638" />
<glyph unicode="&#x2004;" horiz-adv-x="546" />
<glyph unicode="&#x2005;" horiz-adv-x="409" />
<glyph unicode="&#x2006;" horiz-adv-x="273" />
<glyph unicode="&#x2007;" horiz-adv-x="273" />
<glyph unicode="&#x2008;" horiz-adv-x="204" />
<glyph unicode="&#x2009;" horiz-adv-x="327" />
<glyph unicode="&#x200a;" horiz-adv-x="91" />
<glyph unicode="&#x2010;" d="M68 436l20 27q20 27 33 45l33 49l10 18q29 -4 49 -4q31 -4 137 -4q137 0 197 4q18 0 67 4l-16 -20l-35 -47q-6 -10 -28 -49l-13 -23l-49 4q-80 6 -225 4l-117 -2z" />
<glyph unicode="&#x2011;" d="M68 436l20 27q20 27 33 45l33 49l10 18q29 -4 49 -4q31 -4 137 -4q137 0 197 4q18 0 67 4l-16 -20l-35 -47q-6 -10 -28 -49l-13 -23l-49 4q-80 6 -225 4l-117 -2z" />
<glyph unicode="&#x2012;" d="M68 436l20 27q20 27 33 45l33 49l10 18q29 -4 49 -4q31 -4 137 -4q137 0 197 4q18 0 67 4l-16 -20l-35 -47q-6 -10 -28 -49l-13 -23l-49 4q-80 6 -225 4l-117 -2z" />
<glyph unicode="&#x2013;" horiz-adv-x="1159" d="M68 436l38 27q37 27 61 45l62 49l19 18q54 -4 92 -4q58 -4 257 -4q257 0 369 4q34 0 126 4l-30 -20l-66 -47q-11 -10 -52 -49l-25 -23l-91 4q-150 6 -422 4l-220 -2z" />
<glyph unicode="&#x2014;" horiz-adv-x="2183" d="M68 436l75 27q75 27 124 45l124 49l37 18q109 -4 184 -4q116 -4 514 -4q514 0 739 4q67 0 251 4l-60 -20l-131 -47q-23 -10 -105 -49l-49 -23l-184 4q-300 6 -844 4l-439 -2z" />
<glyph unicode="&#x202f;" horiz-adv-x="327" />
<glyph unicode="&#x205f;" horiz-adv-x="409" />
<glyph unicode="&#xe000;" horiz-adv-x="1310" d="M0 0v1310h1310v-1310h-1310z" />
</font>
</defs>
</svg>
